<svg width="70" height="82" viewBox="0 0 70 82" fill="none" xmlns="http://www.w3.org/2000/svg">
<mask id="path-1-outside-1_1_17" maskUnits="userSpaceOnUse" x="30" y="16" width="38" height="49" fill="black">
<rect fill="white" x="30" y="16" width="38" height="49"/>
<path d="M49.248 63.896C43.7013 63.896 39.3067 62.36 36.064 59.288C32.8213 56.1733 31.2 51.736 31.2 45.976V35.224C31.2 29.464 32.8213 25.048 36.064 21.976C39.3067 18.8613 43.7013 17.304 49.248 17.304C54.752 17.304 58.9973 18.8187 61.984 21.848C65.0133 24.8347 66.528 28.952 66.528 34.2V34.584H58.208V33.944C58.208 31.2987 57.4613 29.1227 55.968 27.416C54.5173 25.7093 52.2773 24.856 49.248 24.856C46.2613 24.856 43.9147 25.7733 42.208 27.608C40.5013 29.4427 39.648 31.9387 39.648 35.096V46.104C39.648 49.2187 40.5013 51.7147 42.208 53.592C43.9147 55.4267 46.2613 56.344 49.248 56.344C52.2773 56.344 54.5173 55.4907 55.968 53.784C57.4613 52.0347 58.208 49.8587 58.208 47.256V46.104H66.528V47C66.528 52.248 65.0133 56.3867 61.984 59.416C58.9973 62.4027 54.752 63.896 49.248 63.896Z"/>
</mask>
<path d="M49.248 63.896C43.7013 63.896 39.3067 62.36 36.064 59.288C32.8213 56.1733 31.2 51.736 31.2 45.976V35.224C31.2 29.464 32.8213 25.048 36.064 21.976C39.3067 18.8613 43.7013 17.304 49.248 17.304C54.752 17.304 58.9973 18.8187 61.984 21.848C65.0133 24.8347 66.528 28.952 66.528 34.2V34.584H58.208V33.944C58.208 31.2987 57.4613 29.1227 55.968 27.416C54.5173 25.7093 52.2773 24.856 49.248 24.856C46.2613 24.856 43.9147 25.7733 42.208 27.608C40.5013 29.4427 39.648 31.9387 39.648 35.096V46.104C39.648 49.2187 40.5013 51.7147 42.208 53.592C43.9147 55.4267 46.2613 56.344 49.248 56.344C52.2773 56.344 54.5173 55.4907 55.968 53.784C57.4613 52.0347 58.208 49.8587 58.208 47.256V46.104H66.528V47C66.528 52.248 65.0133 56.3867 61.984 59.416C58.9973 62.4027 54.752 63.896 49.248 63.896Z" fill="#4A7EB7"/>
<path d="M36.064 59.288L35.3713 60.0092L35.3763 60.014L36.064 59.288ZM36.064 21.976L36.7518 22.702L36.7567 22.6972L36.064 21.976ZM61.984 21.848L61.2719 22.5501L61.2769 22.5551L61.2819 22.5601L61.984 21.848ZM66.528 34.584V35.584H67.528V34.584H66.528ZM58.208 34.584H57.208V35.584H58.208V34.584ZM55.968 27.416L55.2061 28.0636L55.2107 28.0691L55.2154 28.0745L55.968 27.416ZM42.208 53.592L41.468 54.2647L41.4758 54.2731L42.208 53.592ZM55.968 53.784L55.2074 53.1347L55.2061 53.1364L55.968 53.784ZM58.208 46.104V45.104H57.208V46.104H58.208ZM66.528 46.104H67.528V45.104H66.528V46.104ZM61.984 59.416L61.2769 58.7089L61.2769 58.7089L61.984 59.416ZM49.248 62.896C43.8923 62.896 39.7663 61.418 36.7517 58.562L35.3763 60.014C38.847 63.302 43.5104 64.896 49.248 64.896V62.896ZM36.7567 58.5668C33.7618 55.6901 32.2 51.5445 32.2 45.976H30.2C30.2 51.9275 31.8809 56.6566 35.3713 60.0092L36.7567 58.5668ZM32.2 45.976V35.224H30.2V45.976H32.2ZM32.2 35.224C32.2 29.6548 33.762 25.5343 36.7517 22.702L35.3763 21.25C31.8806 24.5617 30.2 29.2732 30.2 35.224H32.2ZM36.7567 22.6972C39.7718 19.8011 43.896 18.304 49.248 18.304V16.304C43.5067 16.304 38.8415 17.9216 35.3713 21.2548L36.7567 22.6972ZM49.248 18.304C54.5666 18.304 58.524 19.7629 61.2719 22.5501L62.6961 21.1459C59.4707 17.8744 54.9374 16.304 49.248 16.304V18.304ZM61.2819 22.5601C64.078 25.3168 65.528 29.1532 65.528 34.2H67.528C67.528 28.7508 65.9487 24.3525 62.6861 21.1359L61.2819 22.5601ZM65.528 34.2V34.584H67.528V34.2H65.528ZM66.528 33.584H58.208V35.584H66.528V33.584ZM59.208 34.584V33.944H57.208V34.584H59.208ZM59.208 33.944C59.208 31.0991 58.3994 28.6762 56.7206 26.7575L55.2154 28.0745C56.5232 29.5691 57.208 31.4982 57.208 33.944H59.208ZM56.7299 26.7683C55.0284 24.7666 52.4616 23.856 49.248 23.856V25.856C52.0931 25.856 54.0062 26.6521 55.2061 28.0636L56.7299 26.7683ZM49.248 23.856C46.0414 23.856 43.4078 24.8501 41.4758 26.9269L42.9402 28.2891C44.4216 26.6966 46.4812 25.856 49.248 25.856V23.856ZM41.4758 26.9269C39.5555 28.9913 38.648 31.7544 38.648 35.096H40.648C40.648 32.1229 41.4472 29.894 42.9402 28.2891L41.4758 26.9269ZM38.648 35.096V46.104H40.648V35.096H38.648ZM38.648 46.104C38.648 49.4081 39.558 52.1636 41.4681 54.2647L42.9479 52.9193C41.4446 51.2657 40.648 49.0292 40.648 46.104H38.648ZM41.4758 54.2731C43.4078 56.3499 46.0414 57.344 49.248 57.344V55.344C46.4812 55.344 44.4216 54.5034 42.9402 52.9109L41.4758 54.2731ZM49.248 57.344C52.4616 57.344 55.0284 56.4334 56.7299 54.4316L55.2061 53.1364C54.0062 54.5479 52.0931 55.344 49.248 55.344V57.344ZM56.7286 54.4333C58.3968 52.4791 59.208 50.0633 59.208 47.256H57.208C57.208 49.654 56.5259 51.5903 55.2074 53.1347L56.7286 54.4333ZM59.208 47.256V46.104H57.208V47.256H59.208ZM58.208 47.104H66.528V45.104H58.208V47.104ZM65.528 46.104V47H67.528V46.104H65.528ZM65.528 47C65.528 52.0462 64.0781 55.9076 61.2769 58.7089L62.6911 60.1231C65.9485 56.8657 67.528 52.4498 67.528 47H65.528ZM61.2769 58.7089C58.5297 61.4561 54.5705 62.896 49.248 62.896V64.896C54.9335 64.896 59.465 63.3492 62.6911 60.1231L61.2769 58.7089Z" fill="#4A7EB7" mask="url(#path-1-outside-1_1_17)"/>
<mask id="path-3-outside-2_1_17" maskUnits="userSpaceOnUse" x="1" y="17" width="40" height="47" fill="black">
<rect fill="white" x="1" y="17" width="40" height="47"/>
<path d="M2.944 63V55.576H8.832V25.624H2.944V18.2H21.376C27.392 18.2 31.9573 19.736 35.072 22.808C38.2293 25.8373 39.808 30.36 39.808 36.376V44.824C39.808 50.84 38.2293 55.384 35.072 58.456C31.9573 61.4853 27.392 63 21.376 63H2.944ZM17.28 55.32H21.504C24.9173 55.32 27.4133 54.424 28.992 52.632C30.5707 50.84 31.36 48.3227 31.36 45.08V36.12C31.36 32.8347 30.5707 30.3173 28.992 28.568C27.4133 26.776 24.9173 25.88 21.504 25.88H17.28V55.32Z"/>
</mask>
<path d="M2.944 63V55.576H8.832V25.624H2.944V18.2H21.376C27.392 18.2 31.9573 19.736 35.072 22.808C38.2293 25.8373 39.808 30.36 39.808 36.376V44.824C39.808 50.84 38.2293 55.384 35.072 58.456C31.9573 61.4853 27.392 63 21.376 63H2.944ZM17.28 55.32H21.504C24.9173 55.32 27.4133 54.424 28.992 52.632C30.5707 50.84 31.36 48.3227 31.36 45.08V36.12C31.36 32.8347 30.5707 30.3173 28.992 28.568C27.4133 26.776 24.9173 25.88 21.504 25.88H17.28V55.32Z" fill="black"/>
<path d="M2.944 63H1.944V64H2.944V63ZM2.944 55.576V54.576H1.944V55.576H2.944ZM8.832 55.576V56.576H9.832V55.576H8.832ZM8.832 25.624H9.832V24.624H8.832V25.624ZM2.944 25.624H1.944V26.624H2.944V25.624ZM2.944 18.2V17.2H1.944V18.2H2.944ZM35.072 22.808L34.3697 23.52L34.3797 23.5296L35.072 22.808ZM35.072 58.456L35.7692 59.1729L35.7694 59.1727L35.072 58.456ZM17.28 55.32H16.28V56.32H17.28V55.32ZM28.992 52.632L29.7424 53.293L29.7424 53.293L28.992 52.632ZM28.992 28.568L28.2416 29.2291L28.2496 29.238L28.992 28.568ZM17.28 25.88V24.88H16.28V25.88H17.28ZM3.944 63V55.576H1.944V63H3.944ZM2.944 56.576H8.832V54.576H2.944V56.576ZM9.832 55.576V25.624H7.832V55.576H9.832ZM8.832 24.624H2.944V26.624H8.832V24.624ZM3.944 25.624V18.2H1.944V25.624H3.944ZM2.944 19.2H21.376V17.2H2.944V19.2ZM21.376 19.2C27.2297 19.2 31.5034 20.6928 34.3698 23.52L35.7742 22.096C32.4113 18.7792 27.5543 17.2 21.376 17.2V19.2ZM34.3797 23.5296C37.2758 26.3082 38.808 30.5274 38.808 36.376H40.808C40.808 30.1926 39.1829 25.3664 35.7643 22.0864L34.3797 23.5296ZM38.808 36.376V44.824H40.808V36.376H38.808ZM38.808 44.824C38.808 50.6716 37.2761 54.9162 34.3746 57.7393L35.7694 59.1727C39.1825 55.8518 40.808 51.0084 40.808 44.824H38.808ZM34.3748 57.7391C31.5088 60.5266 27.2332 62 21.376 62V64C27.5508 64 32.4059 62.444 35.7692 59.1729L34.3748 57.7391ZM21.376 62H2.944V64H21.376V62ZM17.28 56.32H21.504V54.32H17.28V56.32ZM21.504 56.32C25.0778 56.32 27.9037 55.3802 29.7424 53.293L28.2416 51.971C26.923 53.4678 24.7568 54.32 21.504 54.32V56.32ZM29.7424 53.293C31.5317 51.2619 32.36 48.4783 32.36 45.08H30.36C30.36 48.167 29.6096 50.4181 28.2416 51.971L29.7424 53.293ZM32.36 45.08V36.12H30.36V45.08H32.36ZM32.36 36.12C32.36 32.6848 31.5344 29.8926 29.7344 27.898L28.2496 29.238C29.607 30.742 30.36 32.9845 30.36 36.12H32.36ZM29.7424 27.907C27.9037 25.8198 25.0778 24.88 21.504 24.88V26.88C24.7568 26.88 26.923 27.7322 28.2416 29.229L29.7424 27.907ZM21.504 24.88H17.28V26.88H21.504V24.88ZM16.28 25.88V55.32H18.28V25.88H16.28Z" fill="black" mask="url(#path-3-outside-2_1_17)"/>
</svg>
